<?xml version="1.0" encoding="UTF-8"?>
<svg id="Layer_1" data-name="Layer 1" xmlns="http://www.w3.org/2000/svg" viewBox="0 0 100 100">
  <rect x="-.12" y=".13" width="100" height="100" style="stroke-width: 0px;"/>
  <path d="M49.64,58.93c0,8.93-6.55,16.71-20.95,16.71-6.99,0-14.33-1.94-19.23-5.4l4.61-8.93c3.82,2.88,9.07,4.54,14.33,4.54,5.83,0,9.43-2.45,9.43-6.55s-2.59-6.55-11.74-6.55h-12.89l2.59-28.37h30.75v9.36h-21.03l-.79,9.58h4.1c14.91,0,20.81,6.7,20.81,15.63Z" style="fill: #84cc16; stroke-width: 0px;"/>
  <path d="M90.54,59.36c0,8.5-6.55,16.27-20.88,16.27-7.06,0-14.33-1.94-19.23-5.4l4.54-8.93c3.82,2.88,9.14,4.54,14.4,4.54,5.83,0,9.43-2.38,9.43-6.48,0-3.82-2.81-6.19-9.43-6.19h-5.33v-7.71l10.37-11.74h-21.46v-9.36h35.28v7.56l-11.38,12.96c9.07,1.44,13.68,7.06,13.68,14.47Z" style="fill: #84cc16; stroke-width: 0px;"/>
</svg>