<svg xmlns="http://www.w3.org/2000/svg" viewBox="0 0 153 73">
  <path d="M6.81,1.5h139.47c2.88,0,5.22,2.34,5.22,5.22v59.47c0,2.93-2.38,5.31-5.31,5.31H6.81c-2.93,0-5.31-2.38-5.31-5.31V6.81C1.5,3.88,3.88,1.5,6.81,1.5Z" style="fill: none; stroke: #fff; stroke-linejoin: round; stroke-width: 3px;"/>
  <g>
    <path d="M9.87,10.83h22.9c16.49,0,27.79,9.94,27.79,25.2s-11.31,25.2-27.79,25.2H9.87V10.83ZM32.19,51.66c10.01,0,16.56-5.98,16.56-15.63s-6.55-15.62-16.56-15.62h-10.66v31.25h10.66Z" style="fill: #fff; stroke-width: 0px;"/>
    <g>
      <path d="M102.24,45.46c0,8.93-6.55,16.71-20.95,16.71-6.99,0-14.33-1.94-19.23-5.4l4.61-8.93c3.82,2.88,9.07,4.54,14.33,4.54,5.83,0,9.43-2.45,9.43-6.55s-2.59-6.55-11.74-6.55h-12.89l2.59-28.37h30.75v9.36h-21.03l-.79,9.58h4.1c14.91,0,20.81,6.7,20.81,15.63Z" style="fill: #84cc16; stroke-width: 0px;"/>
      <path d="M143.13,45.89c0,8.5-6.55,16.27-20.88,16.27-7.06,0-14.33-1.94-19.23-5.4l4.54-8.93c3.82,2.88,9.14,4.54,14.4,4.54,5.83,0,9.43-2.38,9.43-6.48,0-3.82-2.81-6.19-9.43-6.19h-5.33v-7.71l10.37-11.74h-21.46v-9.36h35.28v7.56l-11.38,12.96c9.07,1.44,13.68,7.06,13.68,14.47Z" style="fill: #84cc16; stroke-width: 0px;"/>
    </g>
  </g>
</svg>
